<svg width="21" height="21" viewBox="0 0 21 21" fill="none" xmlns="http://www.w3.org/2000/svg">
<g clip-path="url(#clip0_1_22)">
<path d="M10.5 21C11.1962 21 11.8639 20.7234 12.3562 20.2311C12.8484 19.7389 13.125 19.0712 13.125 18.375H7.875C7.875 19.0712 8.15156 19.7389 8.64384 20.2311C9.13613 20.7234 9.80381 21 10.5 21ZM10.5 2.51736L9.45394 2.72868C8.26739 2.97044 7.20081 3.61475 6.43473 4.55256C5.66865 5.49036 5.25013 6.66406 5.25 7.87499C5.25 8.69924 5.07412 10.7586 4.64756 12.7864C4.43756 13.793 4.15406 14.8417 3.77737 15.75H17.2226C16.8459 14.8417 16.5637 13.7944 16.3524 12.7864C15.9259 10.7586 15.75 8.69924 15.75 7.87499C15.7496 6.66428 15.3309 5.4909 14.5649 4.55336C13.7988 3.61582 12.7324 2.97171 11.5461 2.72999L10.5 2.51605V2.51736ZM18.6637 15.75C18.9564 16.3367 19.2951 16.8013 19.6875 17.0625H1.3125C1.70494 16.8013 2.04356 16.3367 2.33625 15.75C3.5175 13.3875 3.9375 9.02999 3.9375 7.87499C3.9375 4.69874 6.195 2.04749 9.19406 1.44243C9.17574 1.25993 9.19588 1.07562 9.25317 0.901379C9.31046 0.72714 9.40363 0.566844 9.52668 0.430827C9.64973 0.294811 9.79992 0.186094 9.96756 0.111688C10.1352 0.0372828 10.3166 -0.00115967 10.5 -0.00115967C10.6834 -0.00115967 10.8648 0.0372828 11.0324 0.111688C11.2001 0.186094 11.3503 0.294811 11.4733 0.430827C11.5964 0.566844 11.6895 0.72714 11.7468 0.901379C11.8041 1.07562 11.8243 1.25993 11.8059 1.44243C13.2894 1.74417 14.6231 2.54934 15.581 3.72158C16.5389 4.89383 17.0623 6.36112 17.0625 7.87499C17.0625 9.02999 17.4825 13.3875 18.6637 15.75Z" fill="black"/>
</g>
<defs>
<clipPath id="clip0_1_22">
<rect width="21" height="21" fill="white"/>
</clipPath>
</defs>
</svg>
