<svg>
    <symbol id="search" width="21" height="21" viewBox="0 0 21 21" fill="none" xmlns="http://www.w3.org/2000/svg">
        <g clip-path="url(#clip0_1_17)">
            <path d="M15.4111 13.5766C16.682 11.8424 17.2512 9.69228 17.0049 7.55639C16.7585 5.42051 15.7148 3.45639 14.0825 2.05699C12.4502 0.657591 10.3498 -0.0738884 8.20131 0.00889509C6.05286 0.0916786 4.01489 0.98262 2.49513 2.50347C0.975362 4.02433 0.0858799 6.06293 0.00463373 8.21144C-0.0766124 10.3599 0.65637 12.4599 2.05694 14.0912C3.4575 15.7225 5.42237 16.7648 7.55843 17.0096C9.69449 17.2544 11.8442 16.6836 13.5775 15.4115H13.5762C13.6156 15.464 13.6576 15.5139 13.7048 15.5624L18.758 20.6156C19.0041 20.8619 19.3379 21.0003 19.6861 21.0004C20.0343 21.0005 20.3682 20.8623 20.6145 20.6162C20.8608 20.3701 20.9992 20.0363 20.9993 19.6881C20.9994 19.3399 20.8613 19.006 20.6152 18.7597L15.562 13.7066C15.5151 13.6591 15.4646 13.6152 15.4111 13.5753V13.5766ZM15.7497 8.53138C15.7497 9.47936 15.563 10.4181 15.2002 11.2939C14.8374 12.1697 14.3057 12.9655 13.6354 13.6358C12.9651 14.3061 12.1693 14.8379 11.2935 15.2006C10.4176 15.5634 9.47894 15.7501 8.53096 15.7501C7.58298 15.7501 6.64429 15.5634 5.76847 15.2006C4.89265 14.8379 4.09686 14.3061 3.42654 13.6358C2.75621 12.9655 2.22448 12.1697 1.86171 11.2939C1.49893 10.4181 1.31221 9.47936 1.31221 8.53138C1.31221 6.61685 2.07276 4.78073 3.42654 3.42696C4.78031 2.07318 6.61643 1.31263 8.53096 1.31263C10.4455 1.31263 12.2816 2.07318 13.6354 3.42696C14.9892 4.78073 15.7497 6.61685 15.7497 8.53138Z" fill="#868686"/>
        </g>
        <defs>
            <clipPath id="clip0_1_17">
                <rect width="21" height="21" fill="white"/>
            </clipPath>
        </defs>
    </symbol>
    <symbol id="mikrofon" width="18" height="18" viewBox="0 0 18 18" fill="none" xmlns="http://www.w3.org/2000/svg">
        <path d="M5.625 3.375C5.625 2.47989 5.98058 1.62145 6.61351 0.988515C7.24645 0.355579 8.10489 0 9 0C9.89511 0 10.7536 0.355579 11.3865 0.988515C12.0194 1.62145 12.375 2.47989 12.375 3.375V9C12.375 9.89511 12.0194 10.7536 11.3865 11.3865C10.7536 12.0194 9.89511 12.375 9 12.375C8.10489 12.375 7.24645 12.0194 6.61351 11.3865C5.98058 10.7536 5.625 9.89511 5.625 9V3.375Z" fill="black"/>
        <path d="M3.9375 7.23215C4.08668 7.23215 4.22976 7.29141 4.33525 7.3969C4.44074 7.50239 4.5 7.64546 4.5 7.79465V8.91965C4.5 10.1131 4.97411 11.2577 5.81802 12.1016C6.66193 12.9455 7.80653 13.4196 9 13.4196C10.1935 13.4196 11.3381 12.9455 12.182 12.1016C13.0259 11.2577 13.5 10.1131 13.5 8.91965V7.79465C13.5 7.64546 13.5593 7.50239 13.6648 7.3969C13.7702 7.29141 13.9133 7.23215 14.0625 7.23215C14.2117 7.23215 14.3548 7.29141 14.4602 7.3969C14.5657 7.50239 14.625 7.64546 14.625 7.79465V8.91965C14.625 10.3141 14.1071 11.6589 13.1716 12.6931C12.2362 13.7272 10.95 14.3771 9.5625 14.5165V16.7946H12.9375C13.0867 16.7946 13.2298 16.8539 13.3352 16.9594C13.4407 17.0649 13.5 17.208 13.5 17.3571C13.5 17.5063 13.4407 17.6494 13.3352 17.7549C13.2298 17.8604 13.0867 17.9196 12.9375 17.9196H5.0625C4.91332 17.9196 4.77024 17.8604 4.66475 17.7549C4.55926 17.6494 4.5 17.5063 4.5 17.3571C4.5 17.208 4.55926 17.0649 4.66475 16.9594C4.77024 16.8539 4.91332 16.7946 5.0625 16.7946H8.4375V14.5165C7.05002 14.3771 5.7638 13.7272 4.82836 12.6931C3.89293 11.6589 3.37498 10.3141 3.375 8.91965V7.79465C3.375 7.64546 3.43426 7.50239 3.53975 7.3969C3.64524 7.29141 3.78832 7.23215 3.9375 7.23215Z" fill="black"/>
    </symbol>

    <symbol id="camera" viewBox="0 0 32 32" xmlns="http://www.w3.org/2000/svg"><defs><style>.cls-1{fill:none;}</style></defs><title/><g><path d="M16,29a4,4,0,0,1-4-4,1,1,0,0,1,1-1h6a1,1,0,0,1,1,1A4,4,0,0,1,16,29Zm-1.73-3a2,2,0,0,0,3.46,0Z"/><path d="M18,7H14a1,1,0,0,1-1-1,3,3,0,0,1,6,0A1,1,0,0,1,18,7ZM16,5h0Z"/><path d="M27,26H5a1,1,0,0,1-1-1,7,7,0,0,1,3-5.75V14a9,9,0,0,1,8.94-9h.11a9,9,0,0,1,9,9v5.25A7,7,0,0,1,28,25h0A1,1,0,0,1,27,26ZM6.1,24H25.9a5,5,0,0,0-2.4-3.33,1,1,0,0,1-.5-.87V14A7,7,0,1,0,9,14v5.8a1,1,0,0,1-.5.87A5,5,0,0,0,6.1,24Z"/></g><g id="frame"><rect class="cls-1" height="32" width="32"/></g></symbol>

</svg>