<svg width="25" height="25" viewBox="0 0 25 25" fill="none" xmlns="http://www.w3.org/2000/svg">
<path d="M0 9.375C0 8.5462 0.32924 7.75134 0.915291 7.16529C1.50134 6.57924 2.2962 6.25 3.125 6.25H21.875C22.7038 6.25 23.4987 6.57924 24.0847 7.16529C24.6708 7.75134 25 8.5462 25 9.375V17.1875C25 18.0163 24.6708 18.8112 24.0847 19.3972C23.4987 19.9833 22.7038 20.3125 21.875 20.3125H3.125C2.2962 20.3125 1.50134 19.9833 0.915291 19.3972C0.32924 18.8112 0 18.0163 0 17.1875V9.375ZM20.3125 9.76562V10.5469C20.3125 10.7625 20.4875 10.9375 20.7031 10.9375H21.4844C21.588 10.9375 21.6873 10.8963 21.7606 10.8231C21.8338 10.7498 21.875 10.6505 21.875 10.5469V9.76562C21.875 9.66202 21.8338 9.56267 21.7606 9.48941C21.6873 9.41615 21.588 9.375 21.4844 9.375H20.7031C20.5995 9.375 20.5002 9.41615 20.4269 9.48941C20.3537 9.56267 20.3125 9.66202 20.3125 9.76562ZM3.51562 12.5C3.41202 12.5 3.31267 12.5412 3.23941 12.6144C3.16616 12.6877 3.125 12.787 3.125 12.8906V13.6719C3.125 13.8875 3.3 14.0625 3.51562 14.0625H4.29688C4.40048 14.0625 4.49983 14.0213 4.57309 13.9481C4.64635 13.8748 4.6875 13.7755 4.6875 13.6719V12.8906C4.6875 12.787 4.64635 12.6877 4.57309 12.6144C4.49983 12.5412 4.40048 12.5 4.29688 12.5H3.51562ZM6.25 12.8906V13.6719C6.25 13.8875 6.425 14.0625 6.64062 14.0625H7.42188C7.52548 14.0625 7.62483 14.0213 7.69809 13.9481C7.77135 13.8748 7.8125 13.7755 7.8125 13.6719V12.8906C7.8125 12.787 7.77135 12.6877 7.69809 12.6144C7.62483 12.5412 7.52548 12.5 7.42188 12.5H6.64062C6.53702 12.5 6.43767 12.5412 6.36441 12.6144C6.29115 12.6877 6.25 12.787 6.25 12.8906ZM9.76562 12.5C9.66202 12.5 9.56267 12.5412 9.48941 12.6144C9.41615 12.6877 9.375 12.787 9.375 12.8906V13.6719C9.375 13.8875 9.55 14.0625 9.76562 14.0625H10.5469C10.6505 14.0625 10.7498 14.0213 10.8231 13.9481C10.8963 13.8748 10.9375 13.7755 10.9375 13.6719V12.8906C10.9375 12.787 10.8963 12.6877 10.8231 12.6144C10.7498 12.5412 10.6505 12.5 10.5469 12.5H9.76562ZM12.5 12.8906V13.6719C12.5 13.8875 12.675 14.0625 12.8906 14.0625H13.6719C13.7755 14.0625 13.8748 14.0213 13.9481 13.9481C14.0213 13.8748 14.0625 13.7755 14.0625 13.6719V12.8906C14.0625 12.787 14.0213 12.6877 13.9481 12.6144C13.8748 12.5412 13.7755 12.5 13.6719 12.5H12.8906C12.787 12.5 12.6877 12.5412 12.6144 12.6144C12.5412 12.6877 12.5 12.787 12.5 12.8906ZM20.7031 12.5C20.5995 12.5 20.5002 12.5412 20.4269 12.6144C20.3537 12.6877 20.3125 12.787 20.3125 12.8906V13.6719C20.3125 13.8875 20.4875 14.0625 20.7031 14.0625H21.4844C21.588 14.0625 21.6873 14.0213 21.7606 13.9481C21.8338 13.8748 21.875 13.7755 21.875 13.6719V12.8906C21.875 12.787 21.8338 12.6877 21.7606 12.6144C21.6873 12.5412 21.588 12.5 21.4844 12.5H20.7031ZM20.7031 15.625C20.5995 15.625 20.5002 15.6662 20.4269 15.7394C20.3537 15.8127 20.3125 15.912 20.3125 16.0156V16.7969C20.3125 17.0125 20.4875 17.1875 20.7031 17.1875H21.4844C21.588 17.1875 21.6873 17.1463 21.7606 17.0731C21.8338 16.9998 21.875 16.9005 21.875 16.7969V16.0156C21.875 15.912 21.8338 15.8127 21.7606 15.7394C21.6873 15.6662 21.588 15.625 21.4844 15.625H20.7031ZM16.0156 12.5C15.912 12.5 15.8127 12.5412 15.7394 12.6144C15.6662 12.6877 15.625 12.787 15.625 12.8906V13.6719C15.625 13.8875 15.8 14.0625 16.0156 14.0625H18.3594C18.463 14.0625 18.5623 14.0213 18.6356 13.9481C18.7088 13.8748 18.75 13.7755 18.75 13.6719V12.8906C18.75 12.787 18.7088 12.6877 18.6356 12.6144C18.5623 12.5412 18.463 12.5 18.3594 12.5H16.0156ZM17.1875 16.0156V16.7969C17.1875 17.0125 17.3625 17.1875 17.5781 17.1875H18.3594C18.463 17.1875 18.5623 17.1463 18.6356 17.0731C18.7088 16.9998 18.75 16.9005 18.75 16.7969V16.0156C18.75 15.912 18.7088 15.8127 18.6356 15.7394C18.5623 15.6662 18.463 15.625 18.3594 15.625H17.5781C17.4745 15.625 17.3752 15.6662 17.3019 15.7394C17.2287 15.8127 17.1875 15.912 17.1875 16.0156ZM17.5781 9.375C17.4745 9.375 17.3752 9.41615 17.3019 9.48941C17.2287 9.56267 17.1875 9.66202 17.1875 9.76562V10.5469C17.1875 10.7625 17.3625 10.9375 17.5781 10.9375H18.3594C18.463 10.9375 18.5623 10.8963 18.6356 10.8231C18.7088 10.7498 18.75 10.6505 18.75 10.5469V9.76562C18.75 9.66202 18.7088 9.56267 18.6356 9.48941C18.5623 9.41615 18.463 9.375 18.3594 9.375H17.5781ZM14.0625 9.76562V10.5469C14.0625 10.7625 14.2375 10.9375 14.4531 10.9375H15.2344C15.338 10.9375 15.4373 10.8963 15.5106 10.8231C15.5838 10.7498 15.625 10.6505 15.625 10.5469V9.76562C15.625 9.66202 15.5838 9.56267 15.5106 9.48941C15.4373 9.41615 15.338 9.375 15.2344 9.375H14.4531C14.3495 9.375 14.2502 9.41615 14.1769 9.48941C14.1037 9.56267 14.0625 9.66202 14.0625 9.76562ZM11.3281 9.375C11.2245 9.375 11.1252 9.41615 11.0519 9.48941C10.9787 9.56267 10.9375 9.66202 10.9375 9.76562V10.5469C10.9375 10.7625 11.1125 10.9375 11.3281 10.9375H12.1094C12.213 10.9375 12.3123 10.8963 12.3856 10.8231C12.4588 10.7498 12.5 10.6505 12.5 10.5469V9.76562C12.5 9.66202 12.4588 9.56267 12.3856 9.48941C12.3123 9.41615 12.213 9.375 12.1094 9.375H11.3281ZM7.8125 9.76562V10.5469C7.8125 10.7625 7.9875 10.9375 8.20312 10.9375H8.98438C9.08798 10.9375 9.18733 10.8963 9.26059 10.8231C9.33385 10.7498 9.375 10.6505 9.375 10.5469V9.76562C9.375 9.66202 9.33385 9.56267 9.26059 9.48941C9.18733 9.41615 9.08798 9.375 8.98438 9.375H8.20312C8.09952 9.375 8.00017 9.41615 7.92691 9.48941C7.85365 9.56267 7.8125 9.66202 7.8125 9.76562ZM3.51562 9.375C3.41202 9.375 3.31267 9.41615 3.23941 9.48941C3.16616 9.56267 3.125 9.66202 3.125 9.76562V10.5469C3.125 10.7625 3.3 10.9375 3.51562 10.9375H5.85938C5.96298 10.9375 6.06233 10.8963 6.13559 10.8231C6.20885 10.7498 6.25 10.6505 6.25 10.5469V9.76562C6.25 9.66202 6.20885 9.56267 6.13559 9.48941C6.06233 9.41615 5.96298 9.375 5.85938 9.375H3.51562ZM3.125 16.0156V16.7969C3.125 17.0125 3.3 17.1875 3.51562 17.1875H4.29688C4.40048 17.1875 4.49983 17.1463 4.57309 17.0731C4.64635 16.9998 4.6875 16.9005 4.6875 16.7969V16.0156C4.6875 15.912 4.64635 15.8127 4.57309 15.7394C4.49983 15.6662 4.40048 15.625 4.29688 15.625H3.51562C3.41202 15.625 3.31267 15.6662 3.23941 15.7394C3.16616 15.8127 3.125 15.912 3.125 16.0156ZM6.64062 15.625C6.53702 15.625 6.43767 15.6662 6.36441 15.7394C6.29115 15.8127 6.25 15.912 6.25 16.0156V16.7969C6.25 17.0125 6.425 17.1875 6.64062 17.1875H15.2344C15.338 17.1875 15.4373 17.1463 15.5106 17.0731C15.5838 16.9998 15.625 16.9005 15.625 16.7969V16.0156C15.625 15.912 15.5838 15.8127 15.5106 15.7394C15.4373 15.6662 15.338 15.625 15.2344 15.625H6.64062Z" fill="#868686"/>
</svg>
