<svg width="30" height="30" viewBox="0 0 30 30" fill="none" xmlns="http://www.w3.org/2000/svg">
<path fill-rule="evenodd" clip-rule="evenodd" d="M4.73682 22.2533C4.73682 22.0047 4.83559 21.7662 5.0114 21.5904C5.18722 21.4146 5.42568 21.3158 5.67432 21.3158H24.4243C24.673 21.3158 24.9114 21.4146 25.0872 21.5904C25.263 21.7662 25.3618 22.0047 25.3618 22.2533C25.3618 22.5019 25.263 22.7404 25.0872 22.9162C24.9114 23.092 24.673 23.1908 24.4243 23.1908H5.67432C5.42568 23.1908 5.18722 23.092 5.0114 22.9162C4.83559 22.7404 4.73682 22.5019 4.73682 22.2533ZM4.73682 14.7533C4.73682 14.5047 4.83559 14.2662 5.0114 14.0904C5.18722 13.9146 5.42568 13.8158 5.67432 13.8158H24.4243C24.673 13.8158 24.9114 13.9146 25.0872 14.0904C25.263 14.2662 25.3618 14.5047 25.3618 14.7533C25.3618 15.0019 25.263 15.2404 25.0872 15.4162C24.9114 15.592 24.673 15.6908 24.4243 15.6908H5.67432C5.42568 15.6908 5.18722 15.592 5.0114 15.4162C4.83559 15.2404 4.73682 15.0019 4.73682 14.7533ZM4.73682 7.2533C4.73682 7.00466 4.83559 6.7662 5.0114 6.59038C5.18722 6.41457 5.42568 6.3158 5.67432 6.3158H24.4243C24.673 6.3158 24.9114 6.41457 25.0872 6.59038C25.263 6.7662 25.3618 7.00466 25.3618 7.2533C25.3618 7.50194 25.263 7.74039 25.0872 7.91621C24.9114 8.09202 24.673 8.1908 24.4243 8.1908H5.67432C5.42568 8.1908 5.18722 8.09202 5.0114 7.91621C4.83559 7.74039 4.73682 7.50194 4.73682 7.2533Z" fill="black"/>
</svg>
