<svg width="38" height="38" viewBox="0 0 38 38" fill="none" xmlns="http://www.w3.org/2000/svg">
<circle cx="19" cy="19" r="19" fill="#F7F7F7"/>
<path d="M15.625 13.375C15.625 12.4799 15.9806 11.6214 16.6135 10.9885C17.2464 10.3556 18.1049 10 19 10C19.8951 10 20.7536 10.3556 21.3865 10.9885C22.0194 11.6214 22.375 12.4799 22.375 13.375V19C22.375 19.8951 22.0194 20.7536 21.3865 21.3865C20.7536 22.0194 19.8951 22.375 19 22.375C18.1049 22.375 17.2464 22.0194 16.6135 21.3865C15.9806 20.7536 15.625 19.8951 15.625 19V13.375Z" fill="black"/>
<path d="M13.9375 17.2321C14.0867 17.2321 14.2298 17.2914 14.3352 17.3969C14.4407 17.5024 14.5 17.6455 14.5 17.7946V18.9196C14.5 20.1131 14.9741 21.2577 15.818 22.1016C16.6619 22.9455 17.8065 23.4196 19 23.4196C20.1935 23.4196 21.3381 22.9455 22.182 22.1016C23.0259 21.2577 23.5 20.1131 23.5 18.9196V17.7946C23.5 17.6455 23.5593 17.5024 23.6648 17.3969C23.7702 17.2914 23.9133 17.2321 24.0625 17.2321C24.2117 17.2321 24.3548 17.2914 24.4602 17.3969C24.5657 17.5024 24.625 17.6455 24.625 17.7946V18.9196C24.625 20.3141 24.1071 21.6589 23.1716 22.6931C22.2362 23.7272 20.95 24.3771 19.5625 24.5165V26.7946H22.9375C23.0867 26.7946 23.2298 26.8539 23.3352 26.9594C23.4407 27.0649 23.5 27.208 23.5 27.3571C23.5 27.5063 23.4407 27.6494 23.3352 27.7549C23.2298 27.8604 23.0867 27.9196 22.9375 27.9196H15.0625C14.9133 27.9196 14.7702 27.8604 14.6648 27.7549C14.5593 27.6494 14.5 27.5063 14.5 27.3571C14.5 27.208 14.5593 27.0649 14.6648 26.9594C14.7702 26.8539 14.9133 26.7946 15.0625 26.7946H18.4375V24.5165C17.05 24.3771 15.7638 23.7272 14.8284 22.6931C13.8929 21.6589 13.375 20.3141 13.375 18.9196V17.7946C13.375 17.6455 13.4343 17.5024 13.5398 17.3969C13.6452 17.2914 13.7883 17.2321 13.9375 17.2321Z" fill="black"/>
</svg>
