<svg width="18" height="18" viewBox="0 0 18 18" fill="none" xmlns="http://www.w3.org/2000/svg">
<path d="M5.625 3.375C5.625 2.47989 5.98058 1.62145 6.61351 0.988515C7.24645 0.355579 8.10489 0 9 0C9.89511 0 10.7536 0.355579 11.3865 0.988515C12.0194 1.62145 12.375 2.47989 12.375 3.375V9C12.375 9.89511 12.0194 10.7536 11.3865 11.3865C10.7536 12.0194 9.89511 12.375 9 12.375C8.10489 12.375 7.24645 12.0194 6.61351 11.3865C5.98058 10.7536 5.625 9.89511 5.625 9V3.375Z" fill="black"/>
<path d="M3.9375 7.23215C4.08668 7.23215 4.22976 7.29141 4.33525 7.3969C4.44074 7.50239 4.5 7.64546 4.5 7.79465V8.91965C4.5 10.1131 4.97411 11.2577 5.81802 12.1016C6.66193 12.9455 7.80653 13.4196 9 13.4196C10.1935 13.4196 11.3381 12.9455 12.182 12.1016C13.0259 11.2577 13.5 10.1131 13.5 8.91965V7.79465C13.5 7.64546 13.5593 7.50239 13.6648 7.3969C13.7702 7.29141 13.9133 7.23215 14.0625 7.23215C14.2117 7.23215 14.3548 7.29141 14.4602 7.3969C14.5657 7.50239 14.625 7.64546 14.625 7.79465V8.91965C14.625 10.3141 14.1071 11.6589 13.1716 12.6931C12.2362 13.7272 10.95 14.3771 9.5625 14.5165V16.7946H12.9375C13.0867 16.7946 13.2298 16.8539 13.3352 16.9594C13.4407 17.0649 13.5 17.208 13.5 17.3571C13.5 17.5063 13.4407 17.6494 13.3352 17.7549C13.2298 17.8604 13.0867 17.9196 12.9375 17.9196H5.0625C4.91332 17.9196 4.77024 17.8604 4.66475 17.7549C4.55926 17.6494 4.5 17.5063 4.5 17.3571C4.5 17.208 4.55926 17.0649 4.66475 16.9594C4.77024 16.8539 4.91332 16.7946 5.0625 16.7946H8.4375V14.5165C7.05002 14.3771 5.7638 13.7272 4.82836 12.6931C3.89293 11.6589 3.37498 10.3141 3.375 8.91965V7.79465C3.375 7.64546 3.43426 7.50239 3.53975 7.3969C3.64524 7.29141 3.78832 7.23215 3.9375 7.23215Z" fill="black"/>
</svg>
