<svg width="21" height="21" viewBox="0 0 21 21" fill="none" xmlns="http://www.w3.org/2000/svg">
<g clip-path="url(#clip0_1_17)">
<path d="M15.4111 13.5766C16.682 11.8424 17.2512 9.69228 17.0049 7.55639C16.7585 5.42051 15.7148 3.45639 14.0825 2.05699C12.4502 0.657591 10.3498 -0.0738884 8.20131 0.00889509C6.05286 0.0916786 4.01489 0.98262 2.49513 2.50347C0.975362 4.02433 0.0858799 6.06293 0.00463373 8.21144C-0.0766124 10.3599 0.65637 12.4599 2.05694 14.0912C3.4575 15.7225 5.42237 16.7648 7.55843 17.0096C9.69449 17.2544 11.8442 16.6836 13.5775 15.4115H13.5762C13.6156 15.464 13.6576 15.5139 13.7048 15.5624L18.758 20.6156C19.0041 20.8619 19.3379 21.0003 19.6861 21.0004C20.0343 21.0005 20.3682 20.8623 20.6145 20.6162C20.8608 20.3701 20.9992 20.0363 20.9993 19.6881C20.9994 19.3399 20.8613 19.006 20.6152 18.7597L15.562 13.7066C15.5151 13.6591 15.4646 13.6152 15.4111 13.5753V13.5766ZM15.7497 8.53138C15.7497 9.47936 15.563 10.4181 15.2002 11.2939C14.8374 12.1697 14.3057 12.9655 13.6354 13.6358C12.9651 14.3061 12.1693 14.8379 11.2935 15.2006C10.4176 15.5634 9.47894 15.7501 8.53096 15.7501C7.58298 15.7501 6.64429 15.5634 5.76847 15.2006C4.89265 14.8379 4.09686 14.3061 3.42654 13.6358C2.75621 12.9655 2.22448 12.1697 1.86171 11.2939C1.49893 10.4181 1.31221 9.47936 1.31221 8.53138C1.31221 6.61685 2.07276 4.78073 3.42654 3.42696C4.78031 2.07318 6.61643 1.31263 8.53096 1.31263C10.4455 1.31263 12.2816 2.07318 13.6354 3.42696C14.9892 4.78073 15.7497 6.61685 15.7497 8.53138Z" fill="#868686"/>
</g>
<defs>
<clipPath id="clip0_1_17">
<rect width="21" height="21" fill="white"/>
</clipPath>
</defs>
</svg>
