<svg width="38" height="38" viewBox="0 0 38 38" fill="white" xmlns="http://www.w3.org/2000/svg">
<g clip-path="url(#clip0_1_52)">
<path d="M19.1211 4.74762H19.3325C21.2847 4.75474 31.1766 4.826 33.8438 5.54325C34.65 5.76215 35.3848 6.18882 35.9745 6.78064C36.5642 7.37246 36.9883 8.10868 37.2044 8.91574C37.4442 9.81824 37.6129 11.0129 37.7269 12.2455L37.7506 12.4925L37.8029 13.11L37.8219 13.357C37.9762 15.5277 37.9953 17.5607 37.9976 18.0049V18.183C37.9953 18.6437 37.9739 20.8145 37.8029 23.0755L37.7839 23.3249L37.7625 23.5719C37.6437 24.9304 37.468 26.2794 37.2044 27.2721C36.989 28.0795 36.5651 28.8161 35.9753 29.408C35.3854 29.9999 34.6504 30.4264 33.8438 30.6446C31.0888 31.3856 20.6174 31.4379 19.1662 31.4402H18.829C18.0951 31.4402 15.0599 31.426 11.8774 31.3167L11.4736 31.3025L11.267 31.293L10.8609 31.2764L10.4548 31.2597C7.8185 31.1434 5.30813 30.9557 4.1515 30.6422C3.34516 30.4242 2.61028 29.9981 2.02047 29.4066C1.43066 28.8152 1.00664 28.0791 0.790875 27.2721C0.52725 26.2817 0.3515 24.9304 0.23275 23.5719L0.21375 23.3225L0.19475 23.0755C0.077538 21.4662 0.0125872 19.8535 0 18.24L0 17.9479C0.00475 17.4372 0.02375 15.6726 0.152 13.7251L0.168625 13.4805L0.17575 13.357L0.19475 13.11L0.247 12.4925L0.27075 12.2455C0.38475 11.0129 0.553375 9.81587 0.79325 8.91574C1.00865 8.10836 1.43251 7.37178 2.02234 6.77987C2.61218 6.18795 3.34725 5.76149 4.15387 5.54325C5.3105 5.2345 7.82087 5.04449 10.4571 4.92574L10.8609 4.90912L11.2694 4.89487L11.4736 4.88774L11.8797 4.87112C14.1401 4.79838 16.4013 4.75801 18.6628 4.74999H19.1211V4.74762ZM15.2 12.3714V23.8141L25.0729 18.0951L15.2 12.3714Z" fill="#FF0000"/>
</g>
<defs>
<clipPath id="clip0_1_52">
<rect width="38" height="38" fill="white"/>
</clipPath>
</defs>
</svg>
